<?xml version="1.0" encoding="UTF-8"?>
<svg id="_x3C_Layer_x3E_" xmlns="http://www.w3.org/2000/svg" version="1.1" viewBox="0 0 2403.5 2506.2">
  <!-- Generator: Adobe Illustrator 29.4.0, SVG Export Plug-In . SVG Version: 2.1.0 Build 152)  -->
  <defs>
    <style>
      .st0 {
        fill: #f7f7f8;
      }

      .st1 {
        fill: #1d1d1b;
      }

      .st2, .st3 {
        fill: #808c9e;
      }

      .st4 {
        fill: #8cd7c6;
      }

      .st3 {
        stroke: #444e5e;
        stroke-miterlimit: 10;
        stroke-width: 5px;
      }

      .st5 {
        fill: #363f4d;
      }

      .st6 {
        fill: #2dd1ac;
      }
    </style>
  </defs>
  <path class="st5" d="M1676.9,1973.1s56.6,115.7,78.8,342.3h-780.7s16.1-204.4,56.1-307.8c40-103.4,645.8-34.5,645.8-34.5Z"/>
  <g>
    <path class="st0" d="M1759.4,900.9c4.5-46.8,9.2-142.8-39.7-149.6-48.9-6.8-70.8,57.4-70.9,96.8-.1,39.4,9.8,74.3,9.8,74.3l100.8-21.5Z"/>
    <path class="st0" d="M1658.6,926.5c-1.8,0-3.4-1.2-3.9-2.9-.4-1.4-10.1-35.9-10-75.4,0-28.3,10.8-68.1,34.2-88.4,12-10.4,25.9-14.6,41.3-12.4,37.5,5.2,52.4,58.5,43.2,154-.2,1.7-1.4,3.2-3.2,3.6l-100.8,21.5c-.3,0-.6,0-.8,0ZM1712.6,754.9c-10.4,0-19.9,3.7-28.4,11-20.5,17.8-31.4,54.9-31.5,82.3,0,31.1,6.3,59.7,8.7,69.6l94.2-20.1c8-87.4-4.9-137.9-36.6-142.3-2.2-.3-4.4-.5-6.5-.5ZM1759.4,900.9h0,0Z"/>
  </g>
  <g>
    <path class="st0" d="M536,1560.3c-33-33.5-97.1-105.1-63.4-141.2,33.7-36.1,91.2,0,116.1,30.5,24.9,30.5,39.2,63.9,39.2,63.9l-91.9,46.8Z"/>
    <path class="st0" d="M536,1564.4c-1.1,0-2.1-.4-2.9-1.2-67.3-68.4-89.3-119.1-63.5-146.8,10.6-11.4,24-16.8,39.9-16.4,31,1,64.3,25.1,82.3,47,25,30.6,39.2,63.5,39.8,64.9.8,1.9,0,4.2-1.9,5.2l-91.9,46.8c-.6.3-1.2.4-1.8.4ZM507.5,1408c-12.7,0-23.4,4.6-32,13.8-21.8,23.4,0,70.7,61.3,133.5l85.8-43.7c-4.3-9.2-17.4-35.4-37.1-59.5-17.3-21.2-49.1-43.2-76.3-44.1-.6,0-1.2,0-1.7,0Z"/>
  </g>
  <g>
    <path class="st6" d="M555.5,1481.2l-341.6-332.9c-4.6-4.5-4.7-11.9-.2-16.5l86.8-89.1c4.5-4.6,11.9-4.7,16.5-.2l229.8,223.9c4.8,4.7,12.6,4.4,17-.7l603.1-691.6c4.3-4.9,11.7-5.4,16.6-1.1l278.9,247.7c5,4.4,12.6,3.8,16.8-1.3l416.4-507.5,114.2,93.7-513.8,626.3c-4.2,5.1-11.8,5.7-16.8,1.3l-282.3-250.7c-4.9-4.3-12.3-3.8-16.6,1.1l-607.8,696.9c-4.4,5.1-12.2,5.4-17,.7Z"/>
    <path class="st6" d="M563.6,1488.6c-4.1,0-8-1.6-10.9-4.5h0l-341.6-333c-3-2.9-4.7-6.9-4.7-11.1,0-4.2,1.5-8.2,4.5-11.2l86.8-89.1c2.9-3,6.9-4.7,11.1-4.7,4,0,8.2,1.5,11.2,4.5l229.8,223.9c1.5,1.5,3.5,2.3,5.7,2.2,2.1,0,4.1-1,5.5-2.6l603.1-691.6c2.8-3.2,6.6-5.1,10.9-5.4,4.2-.3,8.3,1.1,11.4,3.9l278.9,247.7c1.6,1.4,3.6,2.1,5.7,1.9,2.1-.2,4-1.2,5.3-2.8l416.4-507.5c1.4-1.6,3.7-1.9,5.5-.7l120.6,86.1c.9.6,1.5,1.6,1.7,2.7.1,1.1-.2,2.2-.9,3.1l-520.2,634c-2.7,3.3-6.6,5.4-10.9,5.7-4.3.3-8.4-1.1-11.7-3.9l-282.3-250.7c-1.5-1.4-3.5-2-5.6-1.9-2.1.1-3.9,1.1-5.3,2.6l-607.8,696.9c-2.9,3.3-6.8,5.2-11.2,5.4-.2,0-.4,0-.7,0ZM558.3,1478.4c1.5,1.5,3.5,2.3,5.7,2.2,2.1,0,4.1-1,5.5-2.6l607.8-696.9c2.8-3.2,6.6-5.1,10.9-5.4,4.2-.3,8.3,1.1,11.4,3.9l282.3,250.7c1.6,1.4,3.6,2.1,5.7,1.9,2.1-.2,4-1.2,5.3-2.8l517.5-630.6-114.1-81.4-414,504.6c-2.7,3.3-6.6,5.4-10.9,5.7-4.3.4-8.4-1-11.7-3.9l-278.9-247.7c-1.5-1.4-3.5-2-5.6-1.9-2.1.1-3.9,1.1-5.3,2.6l-603.1,691.6c-2.9,3.3-6.8,5.2-11.2,5.4-4.4.3-8.5-1.4-11.6-4.4l-229.8-223.9c-1.5-1.4-3.4-2.2-5.4-2.2-2,0-4,.8-5.4,2.3l-86.8,89.1c-1.4,1.5-2.2,3.4-2.2,5.5,0,2,.8,4,2.3,5.4l341.6,332.9Z"/>
  </g>
  <path class="st6" d="M2081.1,468.4l-265.7-213.5c-4.9-3.9-2.8-11.8,3.3-12.8l253.1-42.9c4.3-.7,8.3,2.5,8.5,6.8l12.7,256.4c.3,6.3-6.9,9.9-11.8,6Z"/>
  <path class="st6" d="M2085.7,474.1c-2.5,0-5-.8-7-2.5l-74.1-59.6c-1.7-1.4-2-3.9-.6-5.7,1.4-1.7,3.9-2,5.7-.6l74.1,59.6c1.5,1.2,2.9.7,3.5.4.4-.2,1.9-1.1,1.8-3.1l-12.7-256.4c0-.9-.5-1.8-1.2-2.4-.7-.6-1.7-.8-2.6-.7l-253.1,42.9c-1.9.3-2.4,1.8-2.6,2.4-.1.5-.4,2.1,1.1,3.3l76.4,61.4c1.7,1.4,2,3.9.6,5.7-1.4,1.7-3.9,2-5.7.6l-76.4-61.4c-3.5-2.8-5-7.3-3.9-11.6,1.1-4.4,4.6-7.5,9-8.3l253.1-42.9c3.2-.5,6.4.3,9,2.3,2.5,2,4,5,4.2,8.2l12.7,256.4c.2,4.5-2.1,8.6-6.2,10.6-1.6.8-3.4,1.3-5.2,1.3Z"/>
  <g>
    <path class="st0" d="M1630.6,935.9c-15.1-21.8-25.3-88.5-43.3-117.6-17.4-28.4,36-37.2,65.1,8.6,33-6.9,59.6,26.2,59.6,26.2l-81.4,82.9Z"/>
    <path class="st0" d="M1630.6,939.9c-1.3,0-2.5-.6-3.3-1.7-7.8-11.2-14.1-32.9-20.7-55.9-6.8-23.4-13.8-47.5-22.6-61.9-7.7-12.6-3.2-21.6,3.7-25.9,14.3-8.9,46.2-2.4,66.7,27.9,33.7-5.1,59.7,26.7,60.8,28.1,1.4,1.7,1.1,4.3-.6,5.7-1.7,1.4-4.3,1.1-5.7-.6-.3-.3-25.4-31-55.6-24.7-1.6.4-3.3-.4-4.2-1.8-18.9-29.8-47.3-33.9-57.2-27.7-6.1,3.8-4,10.2-1.1,14.9,9.4,15.3,16.6,40,23.5,63.9,6.5,22.3,12.6,43.4,19.6,53.5,1.3,1.8.8,4.3-1,5.6-.7.5-1.5.7-2.3.7Z"/>
  </g>
  <g>
    <path class="st0" d="M658,1506.3c-2-26.4-36.1-84.7-40.5-118.6-4.3-33-51.4-6.2-45.1,47.7-30,15.4-29.8,57.9-29.8,57.9l115.5,13Z"/>
    <path class="st0" d="M658,1510.3c-2.1,0-3.8-1.6-4-3.7-.9-12.3-9.5-32.5-18.5-53.9-9.7-22.9-19.7-46.6-22-64.4-.7-5.4-3-11.8-10.2-10.9-11.6,1.4-31,22.5-27,57.5.2,1.7-.7,3.3-2.2,4-27.5,14.1-27.6,53.9-27.6,54.3,0,2.2-1.8,4-4,4h0c-2.2,0-4-1.8-4-4,0-1.8.2-42.9,29.5-60.1-3.1-36.6,17.5-61.7,34.2-63.7,8-1,17.2,3.2,19.2,17.8,2.2,16.8,12,39.9,21.4,62.4,9.3,22,18.1,42.8,19.1,56.4.2,2.2-1.5,4.2-3.7,4.3-.1,0-.2,0-.3,0Z"/>
  </g>
  <path class="st4" d="M1805.8,1263.9c-21.1,99.9-68.7,201.5-165.7,275.8-43.7,33.5-97.4,61.5-163.3,81.2-106.6,31.9-178.3,36.8-225.2,25-163-40.7-29-280.8-29-280.8,0,0,436.4-59.8,385.3-424.1-1.6-11.2,5-22,15.7-25.9,37.3-13.6,121.2-38.9,165-10.1,5,3.2,8.3,8.4,9.7,14.2,8.4,35.4,40.6,187.8,7.4,344.7Z"/>
  <path class="st4" d="M1279.1,1374.5s316.5,98.2,427.3,611.6c3.2,14.9-3.1,30.3-16.1,38.3-42.1,25.8-127.2,19.7-274.1,19.7s-288.5-27.6-386.5,2.8c-12.7,4-25.4-6.1-24.3-19.3,10.2-115.9,55.8-540.9,182.3-654.2l91.4,1.2Z"/>
  <path class="st4" d="M1251.6,1646c-28.4,43.1-70.1,92.1-129.1,147.4-31.4,29.4-62.1,51.6-91.9,67.6-120.1,64.8-226.8,30.7-311-32.6-104.9-78.8-175.1-202.7-193-236.7-3.2-6.1-4.4-13-3-19.7,13.7-62.5,94.3-98.8,125-110.5,7.6-2.9,16.1-2.6,23.5,1,87.4,41.7,200.8,150,200.8,150,127.4-181,349.8-247.2,349.8-247.2,0,0,165,74.3,29,280.8Z"/>
  <path class="st2" d="M1273.4,935.7c-31.9-12.8-75.8-3.6-93,32.9-57.6,4.1-116.6,36.8-150.8,84-24.5,33.7-49,91.3-26.7,174.1.7,2.5,3.1,4,5.6,3.5.6-.1,2-.4,4.1-.9,33.8-7.3,251.1-58,294.1-170.4,26.9-70.3.5-109.8-33.2-123.3Z"/>
  <path class="st0" d="M1146,1316c9.5,35.5,13.3,49.5,17.9,66.7,14.5,54.1,148.3,62.8,137.3,21.9-10.4-38.7-28-104.3-28-104.3l-127.2,15.7Z"/>
  <path class="st0" d="M1161.8,1027.5c-94.1,25.3-149.9,122.1-124.6,216.2,25.3,94.1,122.1,149.9,216.2,124.6,94.1-25.3,149.9-122.1,124.6-216.2-25.3-94.1-122.1-149.9-216.2-124.6Z"/>
  <path class="st0" d="M1207.3,1378.5c-31.2,0-62.1-8.2-89.8-24.2-41.8-24.1-71.7-63-84.2-109.6-25.8-96.1,31.4-195.3,127.5-221.2h0c96.1-25.8,195.3,31.4,221.2,127.5,12.5,46.6,6.1,95.2-17.9,137-24.1,41.8-63,71.7-109.5,84.2-15.6,4.2-31.4,6.3-47.1,6.3ZM1162.9,1031.4c-91.8,24.7-146.5,119.5-121.8,211.3,12,44.5,40.5,81.7,80.4,104.7,39.9,23,86.4,29.1,130.9,17.1,44.5-12,81.7-40.5,104.7-80.4,23-39.9,29.1-86.4,17.1-130.9-24.7-91.8-119.5-146.5-211.3-121.8h0Z"/>
  <g>
    <path class="st2" d="M1161.8,1027.5c-94.1,25.3-179.6,103.9-154.3,198,19.3,71.8,77.2,117.9,121.2,130.3,17.4-54.3-.9-101.2-8.5-129.2,64.8-33.5,80.6-150.8,41.6-199.1Z"/>
    <path class="st2" d="M1129.7,1360.5c-.7.2-1.5.1-2.3,0-46.2-13-104.8-60.4-124.5-133.7-26.3-97.8,61.7-178.1,157.7-203.9,1.8-.5,3.8.1,5,1.6,20.3,25.2,27.4,70,18,114.2-8.7,41.5-29.7,74.2-57.8,90.3.7,2.4,1.4,4.8,2.1,7.4,8.4,28.6,21,71.8,5.2,120.8-.5,1.7-1.9,2.9-3.6,3.2ZM1160,1033c-90.4,25.5-172.2,100.5-147.8,191.2,18.1,67.3,70.4,111.5,113.3,125.5,12.7-44.4,1.1-84.1-6.7-110.6-1.2-4-2.3-7.8-3.2-11.3-.6-2.2.4-4.5,2.4-5.5,27.2-14.1,47.7-45.3,56.2-85.7,8.4-40,2.8-80.2-14.2-103.7Z"/>
  </g>
  <path class="st0" d="M1108.4,1201.5c-28.8,7.7-45.9,37.4-38.1,66.2,7.7,28.8,37.4,45.9,66.2,38.1,28.8-7.7,45.9-37.4,38.1-66.2-7.7-28.8-37.4-45.9-66.2-38.1Z"/>
  <path class="st1" d="M2150.9,2319.5H525.6c-2.2,0-4-1.8-4-4s1.8-4,4-4h1625.3c2.2,0,4,1.8,4,4s-1.8,4-4,4Z"/>
  <path class="st3" d="M1241.4,1245.4h101c0,29.2-23.7,52.9-52.9,52.9h-2c-25.4,0-46.1-20.6-46.1-46.1v-6.8h0Z"/>
</svg>